<svg id="Capa_1" enable-background="new 0 0 512 512" height="512" viewBox="0 0 512 512" width="512" xmlns="http://www.w3.org/2000/svg"><g><g><path d="m432.99 345.17-169.71-94.28c-2.26-1.26-4.77-1.89-7.28-1.89s-5.02.63-7.28 1.89l-169.71 94.28c-33.32 18.511-54.01 53.68-54.01 91.79v60.04c0 8.28 6.72 15 15 15h432c8.28 0 15-6.72 15-15v-60.04c0-38.11-20.69-73.279-54.01-91.79z" fill="#47568c"/></g><g><path d="m487 436.96v60.04c0 8.28-6.72 15-15 15h-216v-263c2.51 0 5.02.63 7.28 1.89l169.71 94.28c33.32 18.511 54.01 53.68 54.01 91.79z" fill="#2c3b73"/></g><g><path d="m271 376v136h-30v-136c0-8.28 6.72-15 15-15s15 6.72 15 15z" fill="#61729b"/></g><g><path d="m271 376v136h-15v-151c8.28 0 15 6.72 15 15z" fill="#47568c"/></g><g><path d="m407.31 209.226-65.39-104.196c-18.22-29.63-51.14-48.03-85.92-48.03s-67.7 18.4-85.92 48.03l-64.808 103.165c-2.87 4.68-4.012 14.505-1.282 19.265 2.67 4.67 7.64 7.54 13.01 7.54h.32l138.68-3 138.68 3h.32c5.37 0 10.34-2.87 13.01-7.54 2.73-4.759 2.17-13.554-.7-18.234z" fill="#61729b"/></g><g><path d="m408.01 227.46c-2.67 4.67-7.64 7.54-13.01 7.54h-.32l-138.68-3v-175c34.78 0 67.7 18.4 85.92 48.03l65.39 104.196c2.87 4.68 3.43 13.475.7 18.234z" fill="#47568c"/></g><g><path d="m375.25 181.28c-13.11-5.1-26.44-9.33-39.92-12.68-.11.13-.22.27-.33.4-16.8 20.67-48.43 23.54-79 20.09-40.42-4.53-79-20.09-79-20.09l-.24-.43c-13.51 3.37-26.87 7.6-40.01 12.71-24.15 9.39-39.75 32.2-39.75 58.11 0 14.11 4.85 27.94 13.66 38.95l60.64 75.8c18.74 23.42 46.7 36.86 76.7 36.86h16c30 0 57.96-13.44 76.7-36.86l60.64-75.8c8.81-11.01 13.66-24.84 13.66-38.95 0-25.91-15.6-48.72-39.75-58.11z" fill="#2c3b73"/></g><g><path d="m415 239.39c0 14.11-4.85 27.94-13.66 38.95l-60.64 75.8c-18.74 23.42-46.7 36.86-76.7 36.86h-8v-201.91c30.57 3.45 62.2.09 79-20.58l.33.09c13.48 3.35 26.81 7.58 39.92 12.68 24.15 9.39 39.75 32.2 39.75 58.11z" fill="#223160"/></g><g><path d="m326.81 166.6c-49.127-10.8-100.978-10.162-149.81 1.91v71.49c0 43.56 35.44 79 79 79s79-35.44 79-79v-71.49c-2.73-.67-5.45-1.309-8.19-1.91z" fill="#f2d6d6"/></g><g><path d="m335 168.51v71.49c0 43.56-35.44 79-79 79v-160.06c26.648-.008 53.197 3.232 79 9.57z" fill="#f0c5c5"/></g><g><path d="m43 239c-23.71 0-43-19.29-43-43v-16c0-23.71 19.29-43 43-43s43 19.29 43 43v16c0 23.71-19.289 43-43 43zm0-72c-7.168 0-13 5.832-13 13v16c0 7.168 5.832 13 13 13s13-5.832 13-13v-16c0-7.168-5.831-13-13-13z" fill="#d6d6f2"/></g><g><path d="m420 111c-23.71 0-43-19.29-43-43v-16c0-23.71 19.29-43 43-43s43 19.29 43 43v16c0 23.71-19.29 43-43 43zm0-72c-7.168 0-13 5.832-13 13v16c0 7.168 5.832 13 13 13s13-5.832 13-13v-16c0-7.168-5.832-13-13-13z" fill="#bfbfef"/></g><g><path d="m497 311c-8.284 0-15-6.716-15-15v-49.029c-5.853.372-11.631-2.691-14.416-8.263-3.705-7.409-.702-16.42 6.708-20.124l16-8c4.65-2.326 10.172-2.077 14.594.656 4.423 2.733 7.114 7.562 7.114 12.76v72c0 8.285-6.716 15-15 15z" fill="#bfbfef"/></g><g><path d="m96 102c-8.284 0-15-6.716-15-15v-49.029c-5.852.37-11.631-2.691-14.417-8.263-3.705-7.409-.701-16.42 6.708-20.124l16-8c4.649-2.325 10.171-2.078 14.594.656s7.115 7.562 7.115 12.76v72c0 8.285-6.716 15-15 15z" fill="#d6d6f2"/></g></g></svg>